# xmcd CD database file
#
# Track frame offsets:
#	150
#	12218
#	25335
#	39303
#	53232
#	66252
#	76841
#	89510
#	100516
#	113169
#	128104
#	142942
#	155313
#	168397
#	184738
#	195832
#	204354
#	216281
#	228093
#	239884
#	250066
#	260866
#	271080
#
# Disc length: 3755 seconds
#
# Revision: 0
# Processed by: cddbd v1.5.2PL0 Copyright (c) Steve Scherf et al.
# Submitted via: CDex 1.70beta2
#
DISCID=320ea917
DTITLE=Lenny Tristano - Jazz Roads CD367 - Bebop - Lenny Tristano Vol.1 (1946-49)
DYEAR=1900
DGENRE=Jazz
TTITLE0=Out On A Limp
TTITLE1=I Can't Get Started
TTITLE2=I Surrender Dear
TTITLE3=Interlude
TTITLE4=I Can't Get Started
TTITLE5=A Night In Tunesia
TTITLE6=Blue Boy
TTITLE7=Atonement
TTITLE8=Coolin' Off With Ulanov
TTITLE9=Supersonic
TTITLE10=On A Planet
TTITLE11=Air Pocket
TTITLE12=Celestia
TTITLE13=Freedom
TTITLE14=Parallel
TTITLE15=Appelation
TTITLE16=Abstraction
TTITLE17=Palimpsest
TTITLE18=Dissonance
TTITLE19=Through These Portals
TTITLE20=Speculation
TTITLE21=New Sound
TTITLE22=Resemblance
EXTD=
EXTT0=
EXTT1=
EXTT2=
EXTT3=
EXTT4=
EXTT5=
EXTT6=
EXTT7=
EXTT8=
EXTT9=
EXTT10=
EXTT11=
EXTT12=
EXTT13=
EXTT14=
EXTT15=
EXTT16=
EXTT17=
EXTT18=
EXTT19=
EXTT20=
EXTT21=
EXTT22=
PLAYORDER=
